<mxfile host="app.diagrams.net" agent="Mozilla/5.0 (Windows NT 10.0; Win64; x64) AppleWebKit/537.36 (KHTML, like Gecko) Chrome/128.0.0.0 Safari/537.36 OPR/114.0.0.0" version="25.0.1">
  <diagram name="Page-1" id="2YBvvXClWsGukQMizWep">
    <mxGraphModel dx="1166" dy="621" grid="1" gridSize="10" guides="1" tooltips="1" connect="1" arrows="1" fold="1" page="1" pageScale="1" pageWidth="850" pageHeight="1100" math="0" shadow="0">
      <root>
        <mxCell id="0" />
        <mxCell id="1" parent="0" />
        <mxCell id="EVk0_eZeiwSZXWvDfi88-1" value="" style="shape=umlLifeline;perimeter=lifelinePerimeter;whiteSpace=wrap;html=1;container=1;dropTarget=0;collapsible=0;recursiveResize=0;outlineConnect=0;portConstraint=eastwest;newEdgeStyle={&quot;curved&quot;:0,&quot;rounded&quot;:0};participant=umlActor;" vertex="1" parent="1">
          <mxGeometry x="70" y="80" width="20" height="640" as="geometry" />
        </mxCell>
        <mxCell id="EVk0_eZeiwSZXWvDfi88-10" value="" style="html=1;points=[[0,0,0,0,5],[0,1,0,0,-5],[1,0,0,0,5],[1,1,0,0,-5]];perimeter=orthogonalPerimeter;outlineConnect=0;targetShapes=umlLifeline;portConstraint=eastwest;newEdgeStyle={&quot;curved&quot;:0,&quot;rounded&quot;:0};" vertex="1" parent="EVk0_eZeiwSZXWvDfi88-1">
          <mxGeometry x="5" y="80" width="10" height="330" as="geometry" />
        </mxCell>
        <mxCell id="EVk0_eZeiwSZXWvDfi88-3" value="Student" style="text;align=center;fontStyle=1;verticalAlign=middle;spacingLeft=3;spacingRight=3;strokeColor=none;rotatable=0;points=[[0,0.5],[1,0.5]];portConstraint=eastwest;html=1;" vertex="1" parent="1">
          <mxGeometry x="40" y="50" width="80" height="26" as="geometry" />
        </mxCell>
        <mxCell id="EVk0_eZeiwSZXWvDfi88-4" value=":Web Application" style="shape=umlLifeline;perimeter=lifelinePerimeter;whiteSpace=wrap;html=1;container=1;dropTarget=0;collapsible=0;recursiveResize=0;outlineConnect=0;portConstraint=eastwest;newEdgeStyle={&quot;curved&quot;:0,&quot;rounded&quot;:0};" vertex="1" parent="1">
          <mxGeometry x="190" y="80" width="100" height="640" as="geometry" />
        </mxCell>
        <mxCell id="EVk0_eZeiwSZXWvDfi88-11" value="" style="html=1;points=[[0,0,0,0,5],[0,1,0,0,-5],[1,0,0,0,5],[1,1,0,0,-5]];perimeter=orthogonalPerimeter;outlineConnect=0;targetShapes=umlLifeline;portConstraint=eastwest;newEdgeStyle={&quot;curved&quot;:0,&quot;rounded&quot;:0};" vertex="1" parent="EVk0_eZeiwSZXWvDfi88-4">
          <mxGeometry x="45" y="80" width="10" height="330" as="geometry" />
        </mxCell>
        <mxCell id="EVk0_eZeiwSZXWvDfi88-12" value="open_app( )" style="html=1;verticalAlign=bottom;endArrow=block;curved=0;rounded=0;" edge="1" parent="1" target="EVk0_eZeiwSZXWvDfi88-11">
          <mxGeometry width="80" relative="1" as="geometry">
            <mxPoint x="85" y="170" as="sourcePoint" />
            <mxPoint x="165" y="170" as="targetPoint" />
          </mxGeometry>
        </mxCell>
        <mxCell id="EVk0_eZeiwSZXWvDfi88-13" value="request(form_page)" style="html=1;verticalAlign=bottom;endArrow=block;curved=0;rounded=0;" edge="1" parent="1" target="EVk0_eZeiwSZXWvDfi88-11">
          <mxGeometry width="80" relative="1" as="geometry">
            <mxPoint x="85" y="200" as="sourcePoint" />
            <mxPoint x="165" y="200" as="targetPoint" />
          </mxGeometry>
        </mxCell>
        <mxCell id="EVk0_eZeiwSZXWvDfi88-14" value="show(form_page)" style="html=1;verticalAlign=bottom;endArrow=open;dashed=1;endSize=8;curved=0;rounded=0;" edge="1" parent="1">
          <mxGeometry relative="1" as="geometry">
            <mxPoint x="235" y="280" as="sourcePoint" />
            <mxPoint x="85" y="280" as="targetPoint" />
          </mxGeometry>
        </mxCell>
        <mxCell id="EVk0_eZeiwSZXWvDfi88-15" value="fill(form, data)" style="html=1;verticalAlign=bottom;endArrow=block;curved=0;rounded=0;" edge="1" parent="1">
          <mxGeometry width="80" relative="1" as="geometry">
            <mxPoint x="85" y="360" as="sourcePoint" />
            <mxPoint x="235" y="360" as="targetPoint" />
          </mxGeometry>
        </mxCell>
        <mxCell id="EVk0_eZeiwSZXWvDfi88-16" value=":Form Management" style="shape=umlLifeline;perimeter=lifelinePerimeter;whiteSpace=wrap;html=1;container=1;dropTarget=0;collapsible=0;recursiveResize=0;outlineConnect=0;portConstraint=eastwest;newEdgeStyle={&quot;curved&quot;:0,&quot;rounded&quot;:0};" vertex="1" parent="1">
          <mxGeometry x="350" y="80" width="100" height="640" as="geometry" />
        </mxCell>
        <mxCell id="EVk0_eZeiwSZXWvDfi88-17" value="" style="html=1;points=[[0,0,0,0,5],[0,1,0,0,-5],[1,0,0,0,5],[1,1,0,0,-5]];perimeter=orthogonalPerimeter;outlineConnect=0;targetShapes=umlLifeline;portConstraint=eastwest;newEdgeStyle={&quot;curved&quot;:0,&quot;rounded&quot;:0};" vertex="1" parent="EVk0_eZeiwSZXWvDfi88-16">
          <mxGeometry x="45" y="280" width="10" height="120" as="geometry" />
        </mxCell>
        <mxCell id="EVk0_eZeiwSZXWvDfi88-40" value="" style="html=1;points=[[0,0,0,0,5],[0,1,0,0,-5],[1,0,0,0,5],[1,1,0,0,-5]];perimeter=orthogonalPerimeter;outlineConnect=0;targetShapes=umlLifeline;portConstraint=eastwest;newEdgeStyle={&quot;curved&quot;:0,&quot;rounded&quot;:0};" vertex="1" parent="EVk0_eZeiwSZXWvDfi88-16">
          <mxGeometry x="45" y="480" width="10" height="80" as="geometry" />
        </mxCell>
        <mxCell id="EVk0_eZeiwSZXWvDfi88-18" value="submit(form, data)" style="html=1;verticalAlign=bottom;endArrow=block;curved=0;rounded=0;" edge="1" parent="1">
          <mxGeometry width="80" relative="1" as="geometry">
            <mxPoint x="245" y="370" as="sourcePoint" />
            <mxPoint x="395" y="370" as="targetPoint" />
          </mxGeometry>
        </mxCell>
        <mxCell id="EVk0_eZeiwSZXWvDfi88-19" value=":DBMS" style="shape=umlLifeline;perimeter=lifelinePerimeter;whiteSpace=wrap;html=1;container=1;dropTarget=0;collapsible=0;recursiveResize=0;outlineConnect=0;portConstraint=eastwest;newEdgeStyle={&quot;curved&quot;:0,&quot;rounded&quot;:0};" vertex="1" parent="1">
          <mxGeometry x="510" y="80" width="100" height="640" as="geometry" />
        </mxCell>
        <mxCell id="EVk0_eZeiwSZXWvDfi88-20" value="" style="html=1;points=[[0,0,0,0,5],[0,1,0,0,-5],[1,0,0,0,5],[1,1,0,0,-5]];perimeter=orthogonalPerimeter;outlineConnect=0;targetShapes=umlLifeline;portConstraint=eastwest;newEdgeStyle={&quot;curved&quot;:0,&quot;rounded&quot;:0};" vertex="1" parent="EVk0_eZeiwSZXWvDfi88-19">
          <mxGeometry x="45" y="280" width="10" height="50" as="geometry" />
        </mxCell>
        <mxCell id="EVk0_eZeiwSZXWvDfi88-24" style="edgeStyle=orthogonalEdgeStyle;rounded=0;orthogonalLoop=1;jettySize=auto;html=1;curved=0;" edge="1" parent="EVk0_eZeiwSZXWvDfi88-19" source="EVk0_eZeiwSZXWvDfi88-20" target="EVk0_eZeiwSZXWvDfi88-20">
          <mxGeometry relative="1" as="geometry" />
        </mxCell>
        <mxCell id="EVk0_eZeiwSZXWvDfi88-21" value=":Notification System" style="shape=umlLifeline;perimeter=lifelinePerimeter;whiteSpace=wrap;html=1;container=1;dropTarget=0;collapsible=0;recursiveResize=0;outlineConnect=0;portConstraint=eastwest;newEdgeStyle={&quot;curved&quot;:0,&quot;rounded&quot;:0};" vertex="1" parent="1">
          <mxGeometry x="670" y="80" width="100" height="640" as="geometry" />
        </mxCell>
        <mxCell id="EVk0_eZeiwSZXWvDfi88-22" value="" style="html=1;points=[[0,0,0,0,5],[0,1,0,0,-5],[1,0,0,0,5],[1,1,0,0,-5]];perimeter=orthogonalPerimeter;outlineConnect=0;targetShapes=umlLifeline;portConstraint=eastwest;newEdgeStyle={&quot;curved&quot;:0,&quot;rounded&quot;:0};" vertex="1" parent="EVk0_eZeiwSZXWvDfi88-21">
          <mxGeometry x="45" y="350" width="10" height="60" as="geometry" />
        </mxCell>
        <mxCell id="EVk0_eZeiwSZXWvDfi88-27" style="edgeStyle=orthogonalEdgeStyle;rounded=0;orthogonalLoop=1;jettySize=auto;html=1;curved=0;" edge="1" parent="EVk0_eZeiwSZXWvDfi88-21" source="EVk0_eZeiwSZXWvDfi88-22" target="EVk0_eZeiwSZXWvDfi88-22">
          <mxGeometry relative="1" as="geometry" />
        </mxCell>
        <mxCell id="EVk0_eZeiwSZXWvDfi88-23" value="update(form, data)" style="html=1;verticalAlign=bottom;endArrow=block;curved=0;rounded=0;" edge="1" parent="1">
          <mxGeometry width="80" relative="1" as="geometry">
            <mxPoint x="405" y="380" as="sourcePoint" />
            <mxPoint x="555" y="380" as="targetPoint" />
          </mxGeometry>
        </mxCell>
        <mxCell id="EVk0_eZeiwSZXWvDfi88-25" value="update( )" style="text;html=1;align=center;verticalAlign=middle;whiteSpace=wrap;rounded=0;" vertex="1" parent="1">
          <mxGeometry x="590" y="370" width="60" height="30" as="geometry" />
        </mxCell>
        <mxCell id="EVk0_eZeiwSZXWvDfi88-26" value="notify(company, message)" style="html=1;verticalAlign=bottom;endArrow=block;curved=0;rounded=0;" edge="1" parent="1" target="EVk0_eZeiwSZXWvDfi88-22">
          <mxGeometry width="80" relative="1" as="geometry">
            <mxPoint x="405" y="440" as="sourcePoint" />
            <mxPoint x="555" y="440" as="targetPoint" />
          </mxGeometry>
        </mxCell>
        <mxCell id="EVk0_eZeiwSZXWvDfi88-28" value="notify( )" style="text;html=1;align=center;verticalAlign=middle;whiteSpace=wrap;rounded=0;" vertex="1" parent="1">
          <mxGeometry x="750" y="440" width="60" height="30" as="geometry" />
        </mxCell>
        <mxCell id="EVk0_eZeiwSZXWvDfi88-29" value="show(home_page)" style="html=1;verticalAlign=bottom;endArrow=open;dashed=1;endSize=8;curved=0;rounded=0;" edge="1" parent="1">
          <mxGeometry relative="1" as="geometry">
            <mxPoint x="235" y="480" as="sourcePoint" />
            <mxPoint x="85" y="480" as="targetPoint" />
          </mxGeometry>
        </mxCell>
        <mxCell id="EVk0_eZeiwSZXWvDfi88-30" value="confirm" style="html=1;verticalAlign=bottom;endArrow=open;dashed=1;endSize=8;curved=0;rounded=0;" edge="1" parent="1">
          <mxGeometry relative="1" as="geometry">
            <mxPoint x="395" y="470" as="sourcePoint" />
            <mxPoint x="245" y="470" as="targetPoint" />
          </mxGeometry>
        </mxCell>
        <mxCell id="EVk0_eZeiwSZXWvDfi88-31" value="loop: while form not completed" style="shape=umlFrame;whiteSpace=wrap;html=1;pointerEvents=0;width=190;height=20;" vertex="1" parent="1">
          <mxGeometry x="10" y="220" width="820" height="470" as="geometry" />
        </mxCell>
        <mxCell id="EVk0_eZeiwSZXWvDfi88-32" value="alt: all answers valid" style="shape=umlFrame;whiteSpace=wrap;html=1;pointerEvents=0;width=150;height=20;" vertex="1" parent="1">
          <mxGeometry x="28.44" y="300" width="780" height="380" as="geometry" />
        </mxCell>
        <mxCell id="EVk0_eZeiwSZXWvDfi88-33" value="" style="endArrow=none;dashed=1;html=1;rounded=0;exitX=0;exitY=0.649;exitDx=0;exitDy=0;exitPerimeter=0;entryX=1.002;entryY=0.647;entryDx=0;entryDy=0;entryPerimeter=0;" edge="1" parent="1">
          <mxGeometry width="50" height="50" relative="1" as="geometry">
            <mxPoint x="27.660000000000053" y="520.8" as="sourcePoint" />
            <mxPoint x="809.22" y="520" as="targetPoint" />
          </mxGeometry>
        </mxCell>
        <mxCell id="EVk0_eZeiwSZXWvDfi88-34" value="true" style="text;html=1;align=center;verticalAlign=middle;whiteSpace=wrap;rounded=0;" vertex="1" parent="1">
          <mxGeometry x="28.44" y="320" width="40" height="30" as="geometry" />
        </mxCell>
        <mxCell id="EVk0_eZeiwSZXWvDfi88-35" value="false" style="text;html=1;align=center;verticalAlign=middle;whiteSpace=wrap;rounded=0;" vertex="1" parent="1">
          <mxGeometry x="30" y="520" width="40" height="30" as="geometry" />
        </mxCell>
        <mxCell id="EVk0_eZeiwSZXWvDfi88-36" value="fill(form, data)" style="html=1;verticalAlign=bottom;endArrow=block;curved=0;rounded=0;" edge="1" parent="1">
          <mxGeometry width="80" relative="1" as="geometry">
            <mxPoint x="85" y="560" as="sourcePoint" />
            <mxPoint x="235" y="560" as="targetPoint" />
          </mxGeometry>
        </mxCell>
        <mxCell id="EVk0_eZeiwSZXWvDfi88-37" value="submit(form, data)" style="html=1;verticalAlign=bottom;endArrow=block;curved=0;rounded=0;" edge="1" parent="1">
          <mxGeometry width="80" relative="1" as="geometry">
            <mxPoint x="245" y="570" as="sourcePoint" />
            <mxPoint x="395" y="570" as="targetPoint" />
          </mxGeometry>
        </mxCell>
        <mxCell id="EVk0_eZeiwSZXWvDfi88-38" value="" style="html=1;points=[[0,0,0,0,5],[0,1,0,0,-5],[1,0,0,0,5],[1,1,0,0,-5]];perimeter=orthogonalPerimeter;outlineConnect=0;targetShapes=umlLifeline;portConstraint=eastwest;newEdgeStyle={&quot;curved&quot;:0,&quot;rounded&quot;:0};" vertex="1" parent="1">
          <mxGeometry x="75" y="520" width="10" height="130" as="geometry" />
        </mxCell>
        <mxCell id="EVk0_eZeiwSZXWvDfi88-39" value="" style="html=1;points=[[0,0,0,0,5],[0,1,0,0,-5],[1,0,0,0,5],[1,1,0,0,-5]];perimeter=orthogonalPerimeter;outlineConnect=0;targetShapes=umlLifeline;portConstraint=eastwest;newEdgeStyle={&quot;curved&quot;:0,&quot;rounded&quot;:0};" vertex="1" parent="1">
          <mxGeometry x="235" y="520" width="10" height="130" as="geometry" />
        </mxCell>
        <mxCell id="EVk0_eZeiwSZXWvDfi88-41" value="show(error)" style="html=1;verticalAlign=bottom;endArrow=open;dashed=1;endSize=8;curved=0;rounded=0;" edge="1" parent="1">
          <mxGeometry relative="1" as="geometry">
            <mxPoint x="235" y="640" as="sourcePoint" />
            <mxPoint x="85" y="640" as="targetPoint" />
          </mxGeometry>
        </mxCell>
        <mxCell id="EVk0_eZeiwSZXWvDfi88-42" value="error" style="html=1;verticalAlign=bottom;endArrow=open;dashed=1;endSize=8;curved=0;rounded=0;" edge="1" parent="1">
          <mxGeometry relative="1" as="geometry">
            <mxPoint x="395" y="630" as="sourcePoint" />
            <mxPoint x="245" y="630" as="targetPoint" />
          </mxGeometry>
        </mxCell>
      </root>
    </mxGraphModel>
  </diagram>
</mxfile>
